<?xml version="1.0" encoding="UTF-8"?>
<svg width="440px" height="100px" viewBox="0 0 440 100" version="1.1" xmlns="http://www.w3.org/2000/svg" xmlns:xlink="http://www.w3.org/1999/xlink">
    <!-- Generator: Sketch 43.2 (39069) - http://www.bohemiancoding.com/sketch -->
    <title>logo</title>
    <desc>Created with Sketch.</desc>
    <defs></defs>
    <g id="Page-1" stroke="none" stroke-width="1" fill="none" fill-rule="evenodd">
        <g id="Group">
            <path d="M50.000002,66.6318432 C45.4537246,68.7915444 40.3679872,70 35,70 C15.6700338,70 0,54.3299662 0,35 L20,35 C20,43.2842712 26.7157288,50 35,50 C43.2842712,50 50,43.2842712 50,35 L50,0 L70,0 L70,100 L60,100 L0,100 L0,80 L50,80 L50,66.6318533 Z M0,0 L20,0 L20,35 L0,35 L0,0 Z" id="Combined-Shape" fill="#EF2D56"></path>
            <path d="M420.000002,66.6318432 C415.453725,68.7915444 410.367987,70 405,70 C385.670034,70 370,54.3299662 370,35 L390,35 C390,43.2842712 396.715729,50 405,50 C413.284271,50 420,43.2842712 420,35 L420,0 L440,0 L440,100 L430,100 L370,100 L370,80 L420,80 L420,66.6318533 Z M370,0 L390,0 L390,35 L370,35 L370,0 Z" id="Combined-Shape-Copy-8" fill="#2EBF71"></path>
            <path d="M115,0 C134.329403,0 150,15.6705673 150,35.0005425 L150,64.9994575 C150,84.3304228 134.330311,100 115,100 C95.6705971,100 80,84.3294327 80,64.9994575 L80,35.0005425 C80,15.6695772 95.6696892,0 115,0 Z M115,20 C106.715352,20 100,26.7153042 100,35.0005425 L100,64.9994575 C100,73.2837292 106.716284,80 115,80 C123.284648,80 130,73.2846958 130,64.9994575 L130,35.0005425 C130,26.7162708 123.283716,20 115,20 Z" id="Path-2-Copy-2" fill="#EF2D56" fill-rule="nonzero"></path>
            <path d="M280,30 L280,64.9999186 C280,84.329852 295.670267,100 315.000081,100 L324.999919,100 C344.329852,100 360,84.3297332 360,64.9999186 L360,30 L340,30 L340,64.9999186 C340,73.2840721 333.284123,80 324.999919,80 L315.000081,80 C306.715928,80 300,73.284123 300,64.9999186 L300,30 L280,30 Z" id="Path-3-Copy" fill="#2EBF71" fill-rule="nonzero"></path>
            <path d="M170,0 L235.000965,0 C254.329429,0 270,15.6705382 270,35 C270,54.3292679 254.330243,70 235.000965,70 L180,70 L180,100 L160,100 L160,0 L170,0 Z M180,50 L235.000965,50 C243.284269,50 250,43.2838515 250,35 C250,26.7162426 243.283743,20 235.000965,20 L180,20 L180,50 Z" id="Combined-Shape" fill="#2EBF71" fill-rule="nonzero"></path>
        </g>
    </g>
</svg>